<?xml version="1.0" standalone="no"?>
<!DOCTYPE svg PUBLIC "-//W3C//DTD SVG 20010904//EN"
 "http://www.w3.org/TR/2001/REC-SVG-20010904/DTD/svg10.dtd">
<svg version="1.0" xmlns="http://www.w3.org/2000/svg"
 width="1024.000000pt" height="1024.000000pt" viewBox="0 0 1024.000000 1024.000000"
 preserveAspectRatio="xMidYMid meet">
<metadata>
Created by potrace 1.16, written by Peter Selinger 2001-2019
</metadata>
<g transform="translate(0.000000,1024.000000) scale(0.100000,-0.100000)"
fill="#000000" stroke="none">
<path d="M0 8076 l0 -2165 23 -4 22 -4 -22 -8 -23 -7 0 -984 c0 -982 0 -984
20 -984 11 0 23 -6 26 -13 8 -21 -14 -67 -31 -67 -13 0 -15 -20 -15 -130 l0
-130 25 -6 c14 -3 32 -19 40 -34 8 -16 40 -59 71 -97 31 -37 41 -52 23 -33
-19 19 -45 49 -59 66 -22 26 -31 30 -63 26 l-37 -4 0 -429 c0 -396 1 -429 18
-438 16 -10 16 -10 0 -11 -17 0 -18 -69 -18 -1310 l0 -1310 5120 0 5120 0 0
1834 c0 1621 -2 1835 -15 1840 -19 7 -19 40 0 60 13 13 15 116 15 803 l0 789
-38 37 c-21 20 -42 37 -46 37 -5 0 -24 12 -43 26 -18 14 -53 34 -78 45 -24 11
-47 24 -50 29 -9 14 -49 12 -63 -2 -9 -9 -12 -8 -12 6 0 13 -5 16 -20 11 -11
-3 -20 -3 -20 2 0 12 -119 8 -160 -6 -47 -15 -50 -14 -47 11 1 17 -4 24 -20
26 -14 2 -23 -2 -23 -10 0 -8 -10 -15 -22 -15 -13 -1 -24 -7 -26 -13 -2 -5 -8
-8 -13 -4 -5 3 -28 -8 -51 -25 -23 -17 -43 -29 -45 -27 -11 10 13 37 43 46 19
6 34 16 34 21 0 5 3 8 8 7 16 -3 63 23 57 32 -3 5 -8 10 -11 10 -3 0 -3 -4 0
-9 3 -5 -9 -8 -27 -7 -21 0 -31 -3 -29 -11 1 -7 -4 -13 -11 -13 -7 0 -19 6
-26 13 -11 10 -13 9 -9 -3 4 -10 0 -16 -11 -16 -9 -1 -29 -4 -46 -8 -30 -6
-30 -6 4 9 41 20 33 33 -9 15 -17 -7 -33 -10 -37 -7 -3 3 -24 -3 -46 -14 -33
-17 -39 -18 -34 -5 4 10 1 16 -8 16 -8 0 -15 -7 -15 -15 0 -15 -29 -10 -41 8
-4 5 -9 5 -13 -2 -4 -6 -2 -11 5 -11 8 0 8 -4 -2 -16 -12 -14 -14 -13 -21 6
-7 19 -10 20 -24 9 -10 -8 -12 -15 -5 -17 13 -4 15 -32 2 -32 -5 0 -13 9 -16
20 -7 22 -20 26 -31 8 -4 -7 -3 -8 4 -4 8 5 12 -2 12 -21 -1 -25 -2 -26 -12
-9 -10 18 -12 17 -29 -15 l-18 -34 6 38 c4 24 2 37 -6 37 -6 0 -11 -9 -11 -19
0 -11 -5 -23 -12 -27 -8 -5 -9 0 -6 14 10 36 -6 25 -27 -20 -14 -29 -21 -36
-23 -24 -2 10 1 23 7 29 6 6 11 15 11 21 0 16 -38 -24 -50 -55 -16 -38 -22
-32 -11 9 11 37 -5 45 -19 10 -5 -13 -9 -17 -9 -10 -1 6 -6 12 -12 12 -6 0 -8
-7 -5 -16 3 -9 -6 -41 -20 -71 -32 -64 -43 -65 -14 0 26 59 16 96 -12 40 l-19
-38 5 33 6 32 -30 -15 c-17 -9 -30 -22 -30 -29 0 -8 -9 -24 -21 -37 -19 -23
-20 -23 -10 -2 13 26 14 33 2 33 -5 0 -11 -10 -14 -22 -4 -13 -13 -32 -22 -43
-14 -19 -15 -19 -5 8 12 35 13 47 1 47 -5 0 -14 -12 -21 -27 -19 -47 -34 -73
-42 -73 -12 0 -9 17 6 32 7 8 16 25 20 38 l7 25 -19 -24 c-12 -15 -25 -22 -36
-18 -9 4 -16 2 -16 -3 0 -6 5 -10 11 -10 5 0 7 -5 4 -11 -5 -6 -12 -4 -20 8
-12 17 -14 16 -26 -10 -12 -27 -29 -37 -29 -16 0 5 -12 -3 -26 -18 l-25 -28 6
25 c6 24 5 24 -10 -2 -9 -16 -20 -28 -25 -28 -5 0 -23 -28 -39 -62 -17 -35
-30 -57 -31 -50 0 7 9 32 20 54 11 23 20 49 19 57 0 12 -2 12 -6 3 -3 -7 -15
-24 -28 -37 -12 -14 -27 -39 -33 -57 -9 -25 -10 -26 -7 -6 3 14 8 34 11 43 6
16 5 16 -14 -1 -12 -10 -22 -29 -22 -43 0 -31 -9 -23 -12 11 -1 16 -7 24 -15
21 -7 -3 -13 -9 -13 -15 0 -5 5 -6 11 -2 6 3 3 -8 -5 -25 -9 -17 -19 -31 -22
-31 -2 0 0 9 6 21 19 35 2 34 -28 -1 -21 -23 -31 -29 -37 -20 -6 9 -10 9 -17
-1 -7 -10 -11 -11 -14 -3 -3 7 -21 -4 -43 -26 -42 -42 -94 -75 -76 -49 6 8 3
7 -6 -3 -9 -9 -20 -14 -24 -10 -5 4 -5 2 -2 -4 4 -7 -1 -18 -10 -25 -14 -12
-16 -12 -8 1 5 8 -7 2 -27 -15 -20 -16 -42 -40 -49 -52 -7 -13 -14 -21 -17
-18 -3 2 1 11 8 20 11 13 10 14 -3 9 -19 -7 -52 -55 -49 -70 1 -6 -6 -18 -15
-25 -16 -13 -17 -12 -4 4 8 9 11 21 7 24 -4 4 -11 2 -15 -6 -5 -7 -11 -11 -14
-9 -6 4 -130 -114 -169 -161 -15 -18 -32 -30 -38 -26 -5 3 -7 0 -5 -8 3 -7 -3
-24 -15 -37 -11 -13 -20 -27 -20 -32 0 -4 -4 -8 -10 -8 -14 0 -13 27 1 32 8 3
6 10 -5 20 -19 19 -21 33 -4 22 7 -5 9 -1 6 12 -5 20 18 51 30 39 3 -3 1 -9
-5 -13 -14 -9 -21 -51 -8 -52 6 0 11 8 13 20 2 11 8 20 13 20 5 0 9 10 9 23 0
16 3 18 9 9 6 -11 10 -10 16 5 5 10 8 21 7 25 -1 4 5 5 13 2 8 -4 15 -2 15 4
0 5 12 21 26 36 15 14 24 26 20 26 -4 0 -1 6 6 14 7 8 16 12 20 10 4 -2 13 5
21 16 7 11 17 17 22 12 4 -4 5 1 2 10 -4 11 -2 17 6 15 6 -1 13 9 15 21 3 18
9 23 22 19 13 -3 17 0 13 9 -3 8 -1 14 5 14 6 0 12 -6 15 -12 3 -7 5 -4 5 7 1
11 2 29 4 39 2 10 -3 21 -9 23 -8 3 -13 -3 -13 -15 0 -27 -10 -33 -27 -17 -17
18 -33 19 -33 4 0 -5 5 -7 10 -4 6 3 10 -1 10 -10 0 -9 -12 -18 -30 -22 -17
-3 -33 -10 -36 -14 -3 -5 -10 -9 -17 -9 -6 0 11 23 38 50 52 52 69 62 58 33
-7 -19 -5 -18 17 11 10 13 10 17 3 12 -17 -10 -16 2 1 20 11 11 16 11 19 1 3
-6 6 -2 6 11 1 13 5 21 9 18 4 -2 14 -1 22 5 13 7 12 9 -2 9 -10 0 -18 5 -18
11 0 5 4 8 9 4 6 -3 18 6 28 20 40 57 52 70 58 63 4 -3 -4 -23 -17 -42 -14
-20 -28 -33 -31 -29 -4 3 -7 1 -7 -6 0 -8 6 -11 16 -7 9 3 18 6 20 6 2 0 4 7
4 15 0 8 9 19 20 25 12 6 20 7 20 1 0 -5 -6 -12 -12 -14 -7 -3 -3 -6 10 -6 20
-1 27 9 23 32 0 4 8 7 19 7 27 0 70 21 64 31 -3 5 0 9 5 9 6 0 11 -4 11 -10 0
-5 5 -10 11 -10 6 0 9 8 5 18 -5 15 -4 15 6 1 9 -13 17 -15 40 -7 15 6 28 14
28 19 0 4 7 6 15 3 10 -4 15 0 16 12 0 16 2 15 9 -3 9 -22 21 -32 19 -15 -1 4
-1 16 0 27 1 13 4 16 9 8 12 -20 121 26 123 52 1 16 2 17 6 3 4 -16 7 -16 41
2 20 10 82 39 137 65 55 25 107 50 116 54 34 19 171 72 299 117 245 85 408
116 610 117 156 1 185 -5 325 -69 33 -15 63 -27 68 -26 4 1 7 -2 7 -8 0 -5 16
-12 36 -16 22 -4 31 -10 24 -14 -7 -4 -22 -5 -34 -3 -23 5 -16 -2 86 -88 l48
-40 0 2445 0 2446 -5120 0 -5120 0 0 -2164z m8594 1641 c8 -13 7 -24 -6 -48
-17 -29 -18 -111 -18 -1332 0 -844 -4 -1297 -10 -1287 -6 9 -10 10 -10 3 0 -6
5 -15 10 -18 6 -4 9 -79 8 -198 -1 -106 -4 -152 -5 -102 -3 55 -8 92 -16 97
-9 6 -9 8 1 8 7 0 12 14 11 38 l-2 37 -7 -35 c-4 -19 -8 596 -9 1368 -1 1257
-3 1405 -17 1427 -12 19 -13 28 -4 45 14 26 57 24 74 -3z m116 -97 c7 -12 7
-27 2 -37 -9 -17 -26 -2111 -22 -2688 1 -143 -2 -256 -7 -252 -12 13 -20 2980
-8 2989 16 12 24 9 35 -12z m-649 -126 c10 -13 10 -22 -1 -52 -11 -30 -13
-251 -10 -1197 1 -638 0 -1182 -3 -1210 -4 -36 -4 -42 2 -20 5 17 9 -98 8
-275 0 -241 -2 -287 -9 -220 -14 132 -15 148 -17 264 l-1 108 -25 -16 -25 -16
0 40 c0 33 4 42 25 52 l25 11 0 1238 c0 814 -3 1240 -10 1244 -14 8 -13 38 2
53 16 16 23 15 39 -4z m1494 -69 c32 -31 31 -50 0 -81 l-26 -26 -1 -506 c-1
-394 -3 -464 -8 -312 -10 253 -13 777 -5 790 3 5 -10 23 -30 41 -49 45 -43 91
15 112 25 9 30 8 55 -18z m-391 -283 c3 -9 2 -33 -4 -51 -6 -21 -8 -402 -5
-1005 2 -534 0 -948 -3 -921 -7 46 -9 292 -16 1492 -2 330 -5 435 -15 447 -17
20 -5 56 19 56 10 0 21 -8 24 -18z m-352 -859 c2 -456 0 -875 -3 -933 -5 -103
-5 -102 -8 58 -3 149 -5 177 -11 185 -1 1 -3 343 -5 760 -3 644 -1 757 11 757
12 0 14 -126 16 -827z m-4058 421 c20 -19 20 -43 2 -63 -12 -14 -15 -350 -21
-2241 -5 -1619 -4 -2232 4 -2250 10 -23 11 -22 5 9 -7 41 4 161 16 161 5 0 10
-8 13 -17 2 -10 4 52 5 137 4 346 16 710 24 710 4 0 8 -165 9 -367 0 -261 4
-359 11 -338 30 89 67 3372 38 3390 -15 9 -12 51 5 65 31 26 67 -14 47 -53 -8
-15 -13 -315 -17 -962 -2 -517 -7 -1241 -10 -1610 -3 -444 -1 -660 5 -640 6
18 13 347 17 805 4 426 11 753 15 725 4 -27 12 -338 18 -690 5 -352 13 -660
18 -685 4 -25 9 284 12 685 4 619 3 732 -9 741 -17 13 -6 34 17 34 18 0 20
-60 23 -995 1 -236 4 -295 11 -245 5 39 7 336 3 733 -3 396 -2 667 4 667 13 0
18 -55 20 -210 1 -74 6 -261 11 -415 5 -154 10 -451 12 -660 1 -209 4 -348 8
-310 5 62 6 66 11 30 3 -22 6 229 7 558 1 334 6 597 11 597 5 0 12 -277 16
-617 5 -391 11 -607 17 -588 5 17 6 325 2 728 -6 613 -5 697 8 697 13 0 16
-51 22 -357 3 -197 9 -493 12 -658 3 -165 10 -309 15 -320 5 -11 10 -54 13
-95 2 -41 2 166 -1 462 -3 370 -1 538 6 543 8 4 11 -26 11 -94 0 -56 3 -101 8
-101 4 0 9 -271 11 -603 2 -331 5 -604 7 -606 2 -2 6 -2 9 0 15 16 34 2187 19
2277 -6 41 -6 44 15 40 l23 -3 -4 -485 c-7 -1022 -1 -1980 12 -2132 14 -153
33 -203 29 -75 -5 155 15 1327 23 1327 4 0 8 -190 8 -422 1 -233 3 -556 6
-718 3 -162 5 -300 4 -305 0 -7 14 -9 34 -7 l34 4 2 146 c2 81 4 167 5 192 1
25 3 332 4 683 1 350 5 637 10 637 4 0 7 -371 5 -825 l-3 -826 22 7 c51 15 49
-56 41 1226 -5 902 -4 1198 4 1198 9 0 13 -250 14 -987 2 -544 2 -1082 1
-1196 -2 -161 0 -208 10 -204 7 3 24 11 39 19 l28 13 1 975 c1 536 3 968 5
960 3 -8 5 -449 7 -980 l2 -965 -47 -24 c-39 -20 -46 -28 -45 -49 2 -23 -2
-26 -35 -28 -21 -2 -38 2 -38 7 0 6 -5 7 -11 3 -8 -4 -8 -9 0 -17 19 -19 12
-28 -16 -25 -18 2 -27 -1 -26 -9 3 -12 -9 -17 -29 -14 -5 0 -8 -4 -8 -9 0 -6
5 -10 11 -10 6 0 9 -6 6 -14 -3 -7 0 -19 6 -25 8 -8 6 -11 -9 -11 -23 0 -23
-3 -28 -145 -4 -91 0 -105 23 -105 14 0 14 2 1 10 -12 8 -12 10 -1 10 10 0 11
3 2 13 -14 17 -2 30 14 17 9 -8 11 -4 7 15 -6 31 11 32 31 2 16 -25 3 -47 -23
-39 -13 4 -13 3 -2 -11 8 -9 20 -13 28 -10 8 3 14 0 14 -7 0 -7 6 -5 16 5 13
12 14 19 5 28 -15 15 -14 50 2 45 6 -3 14 -13 16 -24 2 -10 10 -28 18 -39 16
-20 15 -15 -4 31 -5 14 -2 14 22 -2 15 -10 23 -20 16 -22 -6 -2 -11 -8 -11
-14 0 -6 6 -6 15 2 12 10 20 7 45 -14 78 -65 189 -61 338 14 35 17 68 30 74
28 6 -2 -5 -12 -25 -21 -43 -21 -57 -38 -27 -34 12 2 25 9 29 16 5 7 10 12 12
11 12 -4 37 13 33 23 -2 7 38 36 93 67 53 30 123 79 154 107 31 29 62 53 68
53 6 0 11 4 11 9 0 16 73 28 108 18 23 -7 39 -6 56 3 13 7 29 10 34 6 6 -3 8
2 6 11 -8 38 61 72 174 87 23 3 52 10 63 16 11 7 27 9 35 6 8 -3 30 1 49 8 18
8 36 12 39 8 3 -3 6 4 6 15 0 15 10 24 31 32 17 6 35 8 40 5 5 -3 7 1 4 8 -3
7 13 24 37 38 22 14 47 31 55 39 12 12 17 11 31 -3 11 -11 12 -16 4 -16 -7 0
-10 -5 -7 -10 5 -8 11 -7 21 1 8 7 14 7 14 1 0 -5 -15 -15 -32 -23 -54 -21
-158 -90 -153 -100 4 -5 -2 -6 -11 -2 -13 5 -15 3 -9 -7 5 -8 4 -11 -3 -7 -5
4 -17 4 -26 1 -14 -5 -14 -9 -4 -23 11 -14 11 -14 -4 -3 -14 11 -25 9 -75 -16
-32 -16 -64 -27 -72 -24 -10 3 -12 0 -8 -12 5 -12 -10 -28 -54 -61 -34 -25
-65 -43 -69 -40 -5 3 -10 -1 -13 -7 -2 -7 -8 -10 -12 -6 -9 8 14 40 24 34 3
-2 15 2 25 10 16 12 17 16 5 31 -13 17 -13 17 7 1 19 -16 21 -16 48 7 25 22
27 26 13 40 -22 21 -29 19 -21 -7 l6 -23 -19 23 c-23 24 -63 30 -63 8 0 -9 -7
-12 -18 -9 -10 2 -24 -3 -31 -11 -12 -14 -11 -16 6 -16 11 0 28 -10 39 -22 10
-13 12 -17 4 -10 -18 16 -30 16 -26 0 1 -7 1 -10 -1 -5 -9 15 -43 6 -53 -14
-7 -12 -18 -18 -26 -15 -8 3 -14 0 -14 -6 0 -7 -13 -9 -34 -5 -22 3 -41 0 -55
-9 -16 -12 -21 -12 -21 -2 0 10 -2 10 -9 0 -4 -8 -11 -13 -15 -12 -4 1 -16 0
-27 -3 -17 -5 -19 -9 -10 -25 9 -17 3 -23 -54 -51 -52 -26 -95 -62 -213 -180
-81 -81 -165 -159 -187 -174 -77 -50 -229 -85 -284 -64 -25 9 -33 8 -50 -7
-19 -18 -21 -18 -27 -2 -4 11 -9 13 -13 7 -4 -5 -12 -6 -19 -2 -10 6 -8 14 8
33 17 22 17 27 5 32 -10 4 -15 -1 -15 -15 0 -12 -5 -19 -12 -16 -7 2 -12 12
-10 22 2 9 -1 14 -6 11 -6 -3 -13 0 -16 6 -6 16 1 -29 10 -59 3 -13 4 -23 0
-23 -12 0 -36 59 -30 74 4 11 0 16 -15 16 -12 0 -21 5 -21 12 0 20 -11 2 -16
-27 -4 -22 -2 -26 10 -22 9 4 18 2 21 -3 4 -6 1 -10 -5 -10 -7 0 -10 -7 -6
-15 3 -8 1 -15 -5 -15 -6 0 -19 23 -31 50 -11 28 -27 50 -34 50 -19 0 -18 -16
1 -24 8 -3 15 -12 15 -20 0 -22 -38 -7 -42 17 -2 11 -9 22 -17 25 -9 3 -11 0
-7 -9 5 -10 3 -9 -6 1 -14 16 -53 22 -78 13 -8 -3 -25 -7 -38 -9 -45 -6 -128
-52 -190 -105 -35 -30 -82 -69 -105 -88 -23 -18 -41 -37 -40 -42 2 -4 -4 -6
-12 -3 -9 4 -22 1 -30 -6 -7 -6 -29 -14 -47 -17 -18 -3 -35 -9 -36 -14 -2 -6
-10 -5 -18 2 -11 9 -14 8 -14 -6 0 -10 -3 -15 -7 -11 -4 3 -12 -6 -19 -21 -10
-24 -13 -25 -13 -7 -1 11 -8 29 -17 40 -8 10 -13 14 -10 7 8 -15 -10 -27 -19
-12 -11 16 5 27 49 33 110 17 336 173 336 232 0 25 -14 32 -24 12 -3 -7 -3 -2
1 12 4 14 6 32 6 40 -3 46 -9 80 -14 80 -4 0 -5 21 -4 47 2 28 -2 51 -8 55 -9
6 -9 8 0 8 7 0 11 19 11 51 1 41 -2 48 -13 39 -7 -6 -11 -20 -8 -30 3 -13 0
-20 -8 -20 -11 0 -11 -2 1 -10 11 -7 12 -12 3 -21 -8 -8 -9 -18 -3 -28 4 -9 5
-35 0 -59 -4 -23 -3 -45 1 -48 5 -3 6 -11 2 -17 -5 -7 -8 -25 -8 -41 0 -16 -5
-31 -11 -33 -12 -4 -13 71 -1 83 4 4 -1 16 -10 26 -16 18 -16 18 0 12 10 -3
17 -1 17 5 0 6 -7 11 -16 11 -11 0 -14 6 -9 20 6 20 -2 24 -42 23 -7 -1 -13 7
-14 16 0 9 -2 24 -4 34 -2 9 1 17 6 17 6 0 7 5 4 11 -4 5 -8 49 -10 97 -3 106
-22 122 -23 20 -2 -130 -4 -148 -13 -142 -5 3 -9 -1 -9 -10 0 -8 5 -16 12 -18
15 -5 1 -28 -17 -28 -10 0 -13 11 -10 40 2 22 7 45 11 51 4 8 -1 9 -17 5 -22
-6 -23 -6 -6 7 9 8 17 25 17 38 l-1 24 -14 -25 c-9 -15 -14 -19 -15 -10 0 9 7
26 16 38 9 13 13 26 9 30 -3 3 -10 0 -15 -8 -8 -12 -10 -12 -10 -1 0 8 8 20
18 28 16 14 16 14 0 9 -21 -6 -23 5 -6 22 9 9 9 12 -2 12 -9 0 -8 6 6 22 15
19 16 20 2 9 -16 -12 -18 -11 -18 3 0 9 6 16 13 17 10 0 10 2 0 6 -7 2 -13 12
-13 20 0 9 -3 13 -7 9 -5 -4 -9 -44 -9 -89 -1 -45 -6 -93 -12 -107 -5 -15 -6
-46 -2 -75 5 -31 4 -55 -2 -62 -7 -9 -6 -15 6 -19 13 -5 13 -8 1 -20 -22 -23
-21 -31 -23 111 -1 44 -2 94 -1 110 2 50 -1 65 -10 65 -5 0 -13 -9 -16 -21 -7
-22 -26 -21 -33 2 -2 9 -1 10 5 3 5 -8 16 -3 34 17 28 30 28 41 1 32 -15 -4
-16 -3 -1 9 16 13 17 33 4 76 -5 14 -3 22 4 22 6 0 11 5 11 12 0 6 -10 2 -23
-10 -25 -23 -47 -29 -47 -12 0 6 6 10 14 10 8 0 16 7 20 15 4 12 2 13 -13 6
-10 -6 -21 -8 -24 -4 -10 10 -17 -18 -20 -84 -2 -35 1 -63 6 -63 5 0 3 -8 -4
-17 -12 -15 -12 -16 6 -10 19 7 19 6 3 -7 -16 -11 -18 -31 -18 -140 0 -69 -4
-126 -8 -126 -5 0 -9 61 -10 136 -1 74 -4 140 -7 145 -4 5 -1 9 6 9 7 0 8 4 2
13 -5 6 -9 35 -8 63 1 43 -1 51 -14 46 -13 -5 -13 -2 2 12 23 23 22 35 -3 29
-11 -3 -20 -9 -20 -14 0 -5 -4 -9 -8 -9 -9 0 -13 25 -14 88 -1 29 -6 42 -16
42 -8 0 -12 6 -9 14 4 10 1 13 -8 10 -15 -6 -9 -34 8 -34 7 0 7 -4 -1 -12 -16
-16 -15 -31 1 -23 6 4 3 -1 -7 -9 -18 -15 -15 -20 9 -17 6 1 3 -4 -6 -11 -11
-9 -14 -20 -9 -33 4 -11 4 -24 0 -30 -13 -16 -13 -27 1 -36 10 -6 10 -11 1
-21 -8 -11 -8 -21 4 -43 8 -16 12 -26 8 -22 -5 4 -14 -3 -21 -15 -12 -21 -12
-20 -8 15 4 37 0 41 -42 40 -7 -1 -13 4 -13 9 0 6 11 7 25 4 25 -6 25 -5 22
42 -2 26 -5 52 -8 57 -3 6 -5 29 -5 52 1 24 -2 43 -6 43 -4 0 -9 8 -11 18 -3
11 -4 10 -2 -4 2 -28 -24 -52 -36 -33 -5 8 -9 25 -10 39 -1 23 -2 22 -8 -5 -4
-16 -3 -33 1 -36 5 -3 2 -21 -6 -40 l-15 -34 -2 35 c-1 19 -1 43 -1 53 2 15
-1 16 -18 7 -22 -12 -22 -12 -14 -34 3 -9 11 -13 17 -9 6 4 7 -4 3 -23 -10
-39 -25 -53 -22 -19 2 15 -1 40 -7 55 l-11 28 -18 -22 c-15 -18 -19 -19 -27
-6 -8 12 -12 9 -22 -17 -13 -39 -24 -42 -34 -10 -6 19 -8 19 -12 5 -2 -10 -9
-18 -14 -18 -5 0 -9 -10 -9 -22 -1 -21 -1 -22 -11 -5 -10 18 -11 18 -24 1 -7
-10 -11 -25 -8 -34 3 -9 -3 -6 -15 7 -26 30 -36 29 -28 -2 5 -20 3 -23 -11
-18 -10 4 -21 11 -25 17 -5 8 -8 7 -8 -1 0 -6 5 -15 10 -18 6 -3 10 -11 10
-17 0 -7 -4 -7 -13 1 -19 15 -28 3 -21 -28 4 -20 3 -23 -5 -11 -6 8 -11 26
-12 40 l-1 25 -11 -27 c-6 -16 -15 -28 -20 -28 -4 0 -5 5 -2 10 3 6 4 10 0 10
-3 0 -10 -10 -15 -22 -7 -19 -9 -19 -9 -5 -1 10 -6 15 -11 12 -6 -4 -8 -10 -5
-15 3 -5 1 -11 -5 -15 -5 -3 -12 6 -16 20 -3 13 -10 22 -16 19 -5 -3 -7 -12
-4 -20 3 -8 1 -14 -4 -14 -6 0 -10 6 -10 13 0 7 -4 6 -10 -4 -5 -9 -7 -26 -5
-38 3 -14 0 -21 -8 -18 -17 5 -21 59 -5 72 7 6 19 22 26 35 l13 25 -21 -24
c-18 -21 -23 -22 -31 -10 -12 19 -11 32 1 24 16 -10 12 12 -6 29 -22 23 -31
20 -37 -13 -3 -16 -14 -37 -24 -47 -10 -9 -19 -21 -19 -26 -3 -21 -6 -22 -13
-3 -10 24 -3 47 12 38 7 -4 8 0 4 11 -4 10 -7 24 -7 32 0 25 -16 15 -33 -21
-9 -19 -21 -35 -27 -35 -5 0 -7 -6 -4 -14 3 -7 -1 -16 -9 -19 -17 -7 -10 51 9
71 21 20 17 42 -7 42 -15 0 -19 -4 -14 -19 7 -22 -12 -38 -26 -24 -17 17 28
61 71 68 22 4 44 14 50 23 8 15 9 15 10 -3 0 -14 7 -20 25 -21 14 -1 44 -14
66 -29 32 -21 43 -24 55 -15 7 7 20 10 28 7 17 -7 26 13 26 54 0 16 4 29 9 29
5 0 9 -16 9 -36 0 -47 7 -52 37 -23 43 42 63 57 68 53 2 -3 7 9 11 26 3 19 10
29 17 25 6 -4 9 -16 6 -26 -3 -11 -2 -19 3 -19 4 0 10 10 14 23 10 40 7 897
-4 897 -5 0 -10 9 -10 20 0 25 29 27 31 3 1 -10 1 -182 -1 -383 -2 -379 3
-480 25 -480 7 0 16 7 19 16 3 9 6 139 6 290 0 176 4 274 10 274 6 0 10 -98
11 -272 0 -224 8 -374 19 -348 7 18 9 96 14 425 3 204 5 378 5 388 1 9 5 17
10 17 5 0 9 -164 8 -377 0 -208 3 -389 7 -401 l8 -24 14 27 c9 19 14 62 14
135 0 191 13 441 22 438 6 -2 9 -117 8 -281 -1 -238 1 -277 14 -277 8 0 18 9
21 21 4 11 5 221 3 466 -2 292 0 447 7 450 6 2 10 -71 11 -204 0 -115 2 -323
3 -464 3 -246 4 -256 22 -252 18 5 19 23 19 519 0 336 3 514 10 514 6 0 10
-52 10 -135 0 -84 4 -135 10 -135 6 0 6 -7 -1 -18 -8 -13 -9 -47 -2 -121 5
-56 5 -107 1 -114 -11 -16 1 -380 12 -391 6 -6 3 -14 -8 -22 -14 -11 -14 -13
-2 -14 12 0 13 -2 1 -9 -10 -6 -12 -19 -7 -45 7 -36 7 -36 56 -36 l50 0 0
1155 c0 858 -3 1160 -12 1174 -14 22 -4 51 17 51 22 0 31 -29 16 -53 -10 -15
-12 -177 -7 -757 3 -405 6 -926 6 -1158 1 -414 1 -422 21 -422 11 0 23 8 26
18 4 9 11 20 16 23 5 4 5 9 -2 13 -6 4 -11 2 -11 -4 0 -6 -4 -8 -10 -5 -16 10
-12 25 6 25 14 0 14 3 3 16 -10 13 -10 17 2 25 12 8 12 11 -3 22 -12 9 -14 18
-7 30 16 28 29 19 29 -19 0 -21 4 -33 10 -29 6 3 10 -3 10 -14 0 -10 -6 -22
-12 -24 -9 -4 -7 -6 3 -6 14 -1 16 79 22 811 4 446 7 1454 7 2238 0 1257 -2
1429 -15 1440 -20 16 -19 39 2 62 20 22 37 23 57 2z m4176 -32 c0 -10 -3 -22
-7 -26 -6 -6 -5 -477 2 -560 2 -23 0 -33 -3 -24 -4 10 -7 -167 -7 -392 0 -224
-1 -407 -3 -406 -8 8 -18 1212 -12 1419 0 16 30 6 30 -11z m-1970 -952 c0
-458 -3 -836 -5 -839 -3 -2 -6 232 -6 520 -1 288 -4 661 -8 829 -3 168 -4 311
-2 318 18 63 22 -80 21 -828z m555 770 c3 -11 3 -25 -2 -32 -4 -7 -8 -434 -8
-948 0 -687 -3 -943 -12 -965 -9 -23 -11 186 -12 921 -1 665 -4 961 -12 983
-6 17 -8 38 -5 46 8 22 44 18 51 -5z m920 -210 c8 -13 6 -1612 -2 -1652 -7
-32 -7 -32 -14 -8 -4 14 -7 378 -8 810 -1 432 -4 795 -7 807 -10 38 14 71 31
43z m-2005 -71 c7 -13 8 -25 2 -32 -6 -7 -12 -290 -15 -705 -3 -382 -8 -696
-11 -700 -3 -3 -6 306 -6 687 0 606 -2 692 -15 697 -18 7 -20 45 -3 62 18 18
36 15 48 -9z m966 -25 c4 -13 2 -30 -4 -37 -7 -8 -12 -256 -16 -732 -3 -396
-9 -765 -13 -820 -5 -61 -9 224 -11 720 -1 523 -6 823 -12 829 -16 16 -12 54
7 64 23 14 42 4 49 -24z m1644 -596 c0 -347 -2 -629 -5 -627 -2 3 -7 287 -11
632 -5 461 -4 627 5 627 8 0 11 -171 11 -632z m-2703 -1880 c-1 -442 -2 -83
-2 797 0 880 1 1241 2 803 2 -438 2 -1158 0 -1600z m1281 1550 c-1 -249 -4
-433 -7 -408 l-5 45 -6 -50 c-4 -27 -8 156 -8 408 -2 400 0 457 13 457 13 0
15 -56 13 -452z m-1474 242 c-5 -149 -4 -193 6 -205 11 -13 12 -216 5 -1093
-4 -592 -11 -1120 -14 -1172 -3 -52 -6 427 -5 1065 1 638 -2 1258 -5 1378 -5
177 -4 217 7 217 11 0 12 -35 6 -190z m1800 -195 c2 -209 6 -399 11 -422 5
-29 4 -43 -4 -43 -8 0 -11 -88 -11 -302 0 -166 -2 -299 -4 -297 -3 4 -16 418
-16 532 0 46 -4 59 -17 64 -41 15 -45 64 -8 81 14 6 25 20 25 29 3 134 -2 678
-7 707 -5 32 -3 38 11 35 16 -4 18 -34 20 -384z m380 137 c-3 -652 -5 -815
-10 -810 -3 3 -7 201 -9 439 -3 239 -8 455 -13 480 -10 54 -6 69 16 69 15 0
17 -18 16 -178z m-2476 -1587 c-2 -954 -1 -1735 1 -1735 7 0 86 65 103 85 10
11 17 15 18 9 0 -14 -52 -61 -102 -92 -26 -16 -36 -29 -33 -42 2 -11 -1 -23
-7 -26 -7 -5 -9 0 -6 14 7 27 6 27 -32 3 -28 -16 -29 -20 -16 -34 8 -8 12 -17
9 -21 -9 -9 -25 -7 -19 2 2 4 1 14 -3 21 -7 10 -13 11 -30 1 -19 -10 -20 -14
-9 -28 11 -13 11 -15 -4 -10 -10 4 -19 1 -22 -8 -3 -8 -13 -14 -21 -14 -14 0
-13 5 5 29 11 17 28 32 38 35 16 5 17 74 14 1161 -3 826 -1 1155 7 1155 8 0
11 -328 11 -1145 0 -630 3 -1145 8 -1145 4 0 22 9 40 20 l32 20 0 1740 c0
1236 3 1740 11 1740 7 0 10 -501 7 -1735z m1874 1268 c2 -175 1 -383 -2 -463
l-5 -145 -7 85 c-4 47 -10 255 -14 463 -6 340 -5 377 10 377 14 0 16 -36 18
-317z m107 -250 c-1 -181 -5 -416 -9 -523 -5 -149 -7 -71 -8 328 -1 342 1 522
8 522 6 0 10 -115 9 -327z m-1894 -1225 c-4 -739 -7 -1369 -7 -1400 0 -32 -3
-58 -7 -58 -4 0 -7 630 -6 1400 0 1179 2 1400 14 1400 11 0 12 -209 6 -1342z
m687 933 c1 -64 3 -99 5 -78 3 28 9 37 22 37 48 0 51 -63 4 -75 l-26 -6 7
-122 c6 -128 -4 -1101 -12 -1092 -2 2 -5 35 -4 72 0 47 -2 59 -7 38 -12 -52
-21 316 -21 846 0 448 2 508 15 503 12 -5 15 -29 17 -123z m-575 -288 c-4
-104 -7 -598 -7 -1100 l0 -911 -36 -22 c-43 -25 -58 -20 -17 6 15 10 31 23 35
29 4 5 8 499 8 1098 0 815 3 1087 12 1087 8 0 9 -49 5 -187z m-1856 21 c10
-12 10 -20 1 -35 -9 -14 -12 -176 -13 -631 0 -337 -2 -608 -5 -603 -8 21 -15
257 -22 737 -4 273 -10 500 -14 503 -10 11 10 45 26 45 8 0 19 -7 27 -16z
m-2606 -549 c61 -84 116 -183 211 -375 48 -96 95 -187 105 -202 12 -15 16 -33
12 -44 -4 -11 -3 -15 5 -10 6 3 14 1 18 -5 4 -8 3 -9 -4 -5 -7 4 -12 1 -12 -8
0 -10 6 -13 15 -10 8 4 15 2 15 -3 0 -5 -9 -9 -19 -10 -12 -1 -23 9 -31 27 -7
16 -18 31 -26 34 -10 4 -12 14 -8 32 6 23 4 26 -9 21 -14 -5 -15 -1 -10 24 5
24 3 28 -11 23 -12 -5 -15 -2 -10 10 3 8 -1 23 -10 31 -9 9 -16 12 -16 6 0 -6
-5 -11 -10 -11 -6 0 -9 3 -8 8 5 15 -25 71 -35 65 -6 -4 -8 0 -4 10 3 10 2 17
-2 17 -5 0 -12 -6 -14 -12 -3 -8 -6 -6 -6 5 -1 9 -5 17 -11 17 -5 0 -10 9 -10
19 0 10 -7 22 -16 25 -8 3 -12 10 -9 16 3 6 -1 13 -10 16 -9 4 -14 13 -11 20
3 9 -2 14 -13 14 -24 0 -31 19 -18 42 8 12 7 21 -3 32 -17 22 -24 13 -10 -13
9 -17 8 -21 -6 -21 -14 0 -16 7 -10 49 4 29 2 52 -3 56 -6 3 -7 13 -4 22 5 12
10 8 24 -18 9 -19 15 -37 12 -42 -2 -4 1 -6 9 -5 8 2 12 -5 11 -17 -1 -11 5
-24 13 -28 10 -6 13 -16 8 -30 -6 -20 -5 -21 11 -7 17 14 18 13 11 -15 -4 -19
-3 -25 2 -17 7 11 11 10 17 -5 5 -10 9 -24 9 -32 1 -8 11 -15 23 -17 16 -3 21
0 17 11 -7 18 -20 19 -28 3 -3 -7 -3 -2 0 12 6 29 -85 207 -144 280 -53 67
-55 70 -46 70 5 0 27 -25 49 -55z m8057 -257 c3 -7 -12 -21 -31 -31 -20 -10
-41 -26 -48 -34 -7 -9 -19 -13 -28 -9 -9 3 -13 2 -10 -4 3 -5 -15 -35 -40 -67
-25 -32 -45 -64 -45 -70 0 -7 -4 -13 -8 -13 -9 0 -86 -152 -109 -215 -43 -119
-66 -219 -88 -391 -14 -105 -36 -235 -50 -290 -29 -117 -112 -292 -161 -341
-19 -18 -34 -42 -34 -52 0 -19 -42 -37 -60 -26 -21 13 -9 43 21 55 53 22 100
80 149 185 56 116 81 218 110 440 32 246 70 385 148 540 36 74 88 155 106 167
7 5 7 8 1 8 -5 0 -2 7 9 15 10 7 15 18 11 24 -3 7 2 11 14 11 12 0 18 5 16 13
-6 14 44 72 53 62 4 -3 0 -10 -8 -15 -8 -6 -10 -10 -5 -10 6 0 18 8 27 18 44
45 54 50 60 30z m-5614 -40 c15 -15 16 -54 2 -63 -6 -4 -10 -226 -10 -632 0
-345 -2 -624 -5 -622 -2 3 -7 284 -11 624 -3 354 -10 621 -15 623 -5 2 -14 12
-19 23 -22 39 27 78 58 47z m-3769 -664 c10 -3 12 -16 8 -44 -4 -30 -2 -40 9
-40 8 0 14 -5 14 -11 0 -7 -9 -9 -21 -6 -36 10 -35 -25 7 -127 5 -13 4 -17 -4
-12 -6 4 -19 34 -28 66 -12 44 -21 60 -34 60 -10 0 -29 10 -44 21 -23 18 -26
26 -20 53 10 47 21 56 63 50 20 -3 42 -7 50 -10z m1514 -155 c50 -23 56 -84
11 -114 l-24 -15 40 -40 c49 -49 90 -129 125 -245 54 -178 77 -241 149 -400
60 -131 189 -316 279 -398 55 -50 122 -97 139 -97 8 0 19 -5 25 -11 16 -16
113 -23 113 -7 0 9 3 9 10 -2 8 -12 19 -11 87 9 90 26 129 47 244 132 103 77
186 113 243 106 23 -3 71 -19 107 -36 37 -16 77 -29 90 -29 62 4 149 -3 149
-11 0 -6 -8 -10 -17 -11 -10 0 -34 -2 -53 -3 -19 -1 -57 3 -84 10 -49 13 -76
10 -40 -4 10 -3 35 -19 54 -33 44 -35 111 -60 155 -60 18 0 37 -5 40 -10 4 -7
-16 -9 -59 -6 -68 4 -121 29 -207 97 -21 16 -57 38 -80 49 -46 20 -119 27
-119 10 0 -5 -6 -7 -14 -4 -20 8 -216 -107 -228 -134 -2 -4 -41 -25 -88 -47
l-85 -40 -137 0 c-123 -1 -138 1 -138 16 0 10 -28 38 -62 63 -77 55 -107 86
-191 198 -60 79 -197 333 -197 364 0 14 -28 27 -41 18 -5 -3 -9 0 -9 5 0 6 5
11 11 11 14 0 11 13 -41 185 -65 214 -122 310 -212 356 -47 24 -60 18 -114
-48 -21 -26 -41 -50 -44 -53 -3 -3 -18 -21 -33 -41 -20 -27 -26 -43 -22 -65 5
-24 1 -32 -22 -45 -42 -23 -173 -254 -173 -304 0 -39 -18 -65 -43 -65 -28 0
-47 17 -47 42 0 13 -8 18 -27 19 -25 1 -24 2 7 8 19 4 46 13 60 21 14 7 30 16
37 19 16 8 133 236 133 260 0 17 -4 19 -32 11 l-33 -9 22 18 22 19 -32 7 c-18
4 -25 9 -16 12 8 2 26 0 38 -5 20 -7 30 -2 63 32 22 23 52 57 66 76 41 56 125
140 140 140 7 0 12 6 10 13 -4 23 14 58 35 67 29 12 32 12 60 -1z m6255 -59
c4 0 18 7 30 16 12 8 26 13 30 10 5 -3 26 -1 46 5 46 13 53 7 32 -23 -9 -12
-16 -17 -16 -10 0 17 -45 15 -61 -4 -7 -9 -22 -14 -35 -11 -14 2 -25 -2 -28
-9 -3 -8 -10 -14 -17 -14 -6 0 -8 7 -5 16 3 8 2 12 -4 9 -6 -3 -10 -16 -11
-28 0 -19 -2 -20 -11 -6 -10 14 -13 13 -33 -5 -12 -12 -25 -28 -28 -36 -4 -12
-6 -11 -6 3 -1 21 -14 22 -31 2 -7 -8 -18 -15 -25 -15 -19 0 -133 -109 -200
-190 -60 -74 -202 -237 -256 -297 -30 -32 -41 -56 -13 -29 8 9 23 16 32 16 11
-1 6 -7 -13 -18 -16 -9 -33 -16 -37 -17 -4 0 -35 -19 -70 -41 -86 -56 -107
-66 -120 -58 -7 4 -8 3 -4 -4 4 -7 5 -12 2 -12 -2 0 -12 -3 -22 -7 -13 -5 -15
-3 -10 8 4 8 -1 3 -12 -10 -14 -18 -21 -21 -27 -11 -5 9 -4 11 3 6 7 -4 12 -2
12 3 0 13 -10 14 -29 2 -13 -8 -13 -12 0 -27 13 -16 12 -16 -9 -3 -21 13 -30
11 -102 -27 -43 -23 -81 -39 -84 -36 -3 3 3 10 14 16 11 6 55 32 99 58 44 26
125 67 181 92 56 25 126 64 156 87 61 47 202 196 291 309 62 77 148 163 195
194 21 13 26 24 23 46 -2 16 0 32 4 34 4 3 7 -8 6 -24 -2 -35 -1 -36 32 -10
14 11 29 17 34 14 5 -3 9 -1 9 3 0 5 16 15 35 22 27 10 35 18 36 39 l2 27 4
-27 c2 -16 8 -28 11 -28z m-5787 -13 c3 -5 9 -1 13 9 4 10 1 21 -6 26 -8 4 -8
8 -2 8 6 0 14 -3 18 -7 7 -8 12 -9 54 -11 18 -2 22 -6 17 -21 -3 -11 0 -23 6
-27 9 -5 7 -10 -5 -19 -16 -12 -16 -14 0 -29 9 -9 19 -14 23 -10 3 4 0 9 -6
11 -7 3 -13 9 -13 15 0 6 9 3 20 -7 16 -14 17 -20 8 -27 -9 -5 -6 -8 10 -8 28
0 28 -12 1 -36 -22 -19 -22 -19 -9 5 11 22 11 23 -9 18 -11 -3 -24 0 -28 5 -3
7 -1 8 5 4 21 -13 13 2 -17 33 -16 16 -31 35 -33 43 -4 11 -8 11 -21 -1 -9 -7
-23 -11 -30 -8 -21 8 -48 -28 -34 -43 10 -10 7 -10 -10 -1 -13 6 -24 22 -24
34 -1 17 -2 18 -6 5 -5 -21 -23 -24 -23 -5 0 8 -4 7 -10 -3 -8 -12 -13 -13
-30 -2 -12 7 -20 8 -20 2 0 -5 -5 -10 -10 -10 -7 0 -7 6 0 19 5 11 10 23 10
28 -1 4 -8 -5 -17 -21 -14 -27 -17 -28 -28 -13 -16 22 -25 22 -26 0 0 -14 -2
-15 -6 -3 -4 8 -13 20 -21 26 -15 11 -9 34 9 34 6 0 7 -4 4 -10 -3 -6 1 -7 9
-4 9 3 16 2 16 -3 0 -15 43 -8 48 7 3 9 10 6 23 -11 10 -13 19 -18 19 -11 0 9
7 11 21 7 16 -5 19 -4 14 5 -6 10 -4 11 6 4 21 -13 58 -12 63 3 6 16 1 16 -27
2 -21 -10 -21 -9 -3 5 16 13 17 18 5 33 -7 10 0 7 16 -7 17 -14 33 -29 36 -33z
m5939 -197 c66 -11 201 -50 255 -75 17 -7 55 -23 85 -35 30 -12 69 -27 85 -35
17 -7 45 -18 63 -25 17 -7 32 -16 32 -21 0 -15 -23 -10 -59 12 -18 11 -40 18
-47 15 -8 -3 -14 0 -14 8 0 7 -6 13 -12 14 -42 5 -78 15 -78 22 0 4 -12 11
-27 15 -16 3 -44 13 -63 22 -91 40 -154 56 -182 47 -14 -4 -18 -2 -14 5 4 6 6
11 4 11 -123 12 -147 11 -193 -9 -27 -12 -50 -19 -53 -16 -3 3 -1 5 5 5 6 0
13 7 17 15 4 13 2 13 -14 5 -22 -12 -47 -14 -36 -2 13 12 89 30 136 31 25 0
74 -4 110 -9z m-7463 -165 c32 -23 38 -63 13 -90 -36 -38 -68 -40 -101 -9 -35
33 -37 60 -7 91 25 26 64 30 95 8z m7413 -30 c0 -18 5 -25 20 -25 32 0 136
-56 233 -126 49 -35 93 -64 97 -64 5 0 15 -6 22 -13 25 -24 124 -47 201 -47
110 0 138 16 75 44 -33 14 -33 14 -6 15 17 1 33 -7 42 -21 16 -22 16 -22 50
-4 19 10 40 16 47 14 28 -9 -109 -57 -182 -64 -126 -11 -197 16 -372 141 -110
79 -188 114 -254 116 -21 0 -32 3 -25 6 6 2 12 16 12 29 0 17 6 24 20 24 15 0
20 -7 20 -25z m-1537 -675 c9 -11 17 -25 17 -30 0 -17 -42 -32 -76 -27 -23 4
-34 1 -38 -9 -3 -8 -12 -14 -20 -14 -8 0 -26 -11 -39 -24 -14 -14 -27 -23 -30
-20 -2 2 -10 -4 -18 -13 -12 -16 -12 -17 2 -6 9 7 19 10 22 6 4 -3 15 0 24 8
16 13 17 12 4 -3 -7 -10 -20 -18 -28 -18 -28 0 -113 -93 -145 -159 -36 -74
-96 -168 -124 -193 -26 -22 -112 -65 -149 -73 -16 -4 7 12 52 34 95 48 125 80
188 202 54 105 121 197 169 234 64 49 30 38 -46 -14 -137 -95 -163 -114 -246
-184 -114 -96 -159 -148 -270 -316 -101 -153 -238 -304 -253 -280 -6 10 -13 9
-32 -4 -14 -9 -51 -25 -83 -36 -33 -11 -59 -24 -59 -29 0 -23 -16 -24 -35 -4
l-20 22 27 5 c50 11 113 36 113 46 0 5 7 9 15 9 8 0 15 4 15 10 0 5 7 6 17 3
11 -4 14 -3 9 5 -4 7 -5 12 -2 12 2 0 11 3 20 6 12 4 16 0 16 -15 0 -12 4 -21
9 -21 16 0 140 143 134 154 -3 6 -3 8 2 4 8 -8 45 33 45 51 0 6 3 11 8 11 4 0
20 21 37 48 16 26 32 49 35 52 3 3 21 30 41 60 65 97 177 202 365 339 60 44
134 92 164 107 30 14 66 36 80 49 22 20 43 32 60 34 3 1 13 -8 23 -19z m-2871
-30 c20 -6 58 -25 85 -44 26 -18 55 -31 63 -29 11 3 12 2 3 -4 -9 -7 9 -36 67
-105 64 -78 97 -108 172 -157 126 -82 125 -80 93 -97 -39 -20 -45 -18 -45 15
0 26 -10 36 -83 84 -55 37 -98 75 -132 118 -28 35 -68 82 -90 105 -54 54 -155
102 -225 106 -33 2 -55 9 -58 17 -5 15 87 10 150 -9z m2880 -150 c-30 -28 -28
-36 4 -15 29 19 58 15 92 -15 46 -39 4 -110 -65 -110 -44 0 -66 25 -60 66 3
18 2 35 -1 39 -14 14 -7 30 18 42 35 17 37 16 12 -7z m784 -40 c37 0 160 -66
234 -125 56 -46 109 -100 250 -260 126 -142 248 -249 333 -292 45 -22 51 -23
59 -9 5 9 15 16 23 16 7 0 48 34 90 75 41 41 81 75 87 75 6 0 -25 -34 -68 -75
-60 -58 -75 -78 -66 -87 7 -7 12 -22 12 -35 0 -19 -5 -23 -29 -23 -17 0 -32 4
-36 9 -3 5 -31 21 -62 35 -30 15 -86 48 -122 75 -66 49 -205 184 -258 252
-176 222 -378 364 -528 370 l-40 2 35 4 c19 3 39 12 45 21 9 15 10 14 13 -5 2
-17 10 -23 28 -23z m-7258 -222 c9 -9 18 -9 37 0 26 12 65 2 65 -17 0 -4 17
-6 38 -4 34 2 45 -3 85 -40 25 -23 71 -60 102 -82 31 -22 72 -52 89 -67 51
-42 201 -110 255 -116 52 -5 91 10 137 53 27 25 36 29 105 40 32 5 35 8 31 34
-3 21 2 33 19 45 30 20 48 20 71 0 17 -16 24 -14 115 27 53 24 107 55 120 69
22 24 25 24 51 10 34 -20 34 -40 0 -59 -22 -13 -30 -13 -51 -2 -22 11 -33 8
-115 -33 -51 -26 -92 -52 -92 -60 0 -17 89 -118 160 -179 64 -56 168 -110 260
-134 48 -12 101 -17 203 -15 85 0 135 -3 132 -8 -9 -15 -198 -12 -298 4 -62
10 -113 27 -174 56 -73 36 -102 58 -195 151 l-110 108 -44 -8 c-24 -5 -50 -14
-58 -21 -9 -6 -20 -9 -25 -6 -5 4 -13 1 -18 -6 -4 -7 -19 -18 -33 -24 -103
-44 -125 -59 -126 -87 -1 -35 -34 -70 -57 -61 -9 3 -30 25 -47 47 -30 41 -129
106 -162 107 -9 0 -19 -6 -21 -12 -3 -7 -6 -3 -6 8 -1 15 -32 44 -104 97 -105
77 -134 92 -130 70 2 -8 -7 -13 -23 -13 -14 0 -23 4 -20 8 2 4 -9 14 -25 21
-32 14 -37 32 -14 51 9 7 13 15 10 18 -3 3 -14 -3 -24 -12 -18 -16 -26 -17
-73 -6 -29 7 -61 16 -71 21 -9 5 -28 7 -42 3 -15 -4 -25 -2 -25 5 0 6 16 11
35 11 19 0 35 5 35 10 0 13 13 13 28 -2z m2452 -204 c10 -11 23 -14 54 -8 23
3 44 11 47 16 6 10 49 -11 49 -23 0 -4 -28 -10 -62 -14 -35 -4 -67 -10 -73
-13 -5 -4 -19 -8 -30 -9 -20 -3 -20 -2 -1 12 11 8 17 17 14 21 -4 3 -20 -4
-36 -16 -17 -12 -35 -19 -41 -16 -6 4 -11 3 -11 -2 0 -5 -15 -15 -32 -23 -18
-7 -35 -15 -38 -18 -3 -3 -33 -20 -67 -37 -49 -24 -60 -27 -52 -13 5 10 18 21
29 24 11 3 20 11 20 16 0 5 7 9 15 9 22 0 18 21 -5 27 -20 5 -20 6 -3 22 46
41 48 41 48 10 0 -21 -4 -28 -14 -24 -11 5 -12 3 -1 -10 7 -9 16 -12 19 -8 3
5 19 14 35 21 23 10 26 15 16 27 -15 19 -6 32 12 18 7 -6 25 -11 41 -11 20 0
27 5 27 19 0 23 23 25 40 3z m1007 -149 c54 -15 148 -47 208 -72 61 -25 161
-62 223 -83 62 -22 136 -50 165 -63 48 -22 302 -172 562 -331 204 -125 272
-150 415 -149 222 1 376 96 593 365 42 54 83 100 90 104 6 4 5 -1 -4 -12 -8
-10 -44 -55 -79 -99 -131 -163 -231 -255 -339 -310 -81 -41 -137 -55 -236 -62
-150 -9 -239 23 -482 174 -379 236 -536 321 -683 368 -63 20 -149 51 -190 70
-156 68 -365 124 -468 126 -31 0 -41 3 -28 8 28 11 145 -5 253 -34z m951 -20
c29 -14 56 -25 61 -25 5 0 11 -3 13 -7 2 -5 48 -30 103 -57 55 -27 107 -55
115 -61 22 -18 74 -29 64 -14 -4 8 -3 9 4 5 23 -14 58 -17 197 -17 112 -1 129
-3 85 -9 -30 -5 -84 -10 -120 -11 -36 -2 -70 -6 -75 -10 -6 -5 -29 -2 -50 6
-59 21 -75 18 -45 -7 l25 -21 -25 8 c-31 9 -58 24 -45 25 11 0 -85 60 -97 60
-4 0 -9 -10 -11 -22 -4 -20 -4 -20 -6 4 -1 27 -42 68 -67 68 -8 0 -14 5 -14
10 0 6 -3 9 -7 8 -17 -4 -59 16 -80 38 -12 13 -32 24 -45 24 -13 0 -32 7 -42
15 -32 24 3 18 62 -10z m-1438 -65 c-13 -25 -47 -44 -55 -30 -6 10 -116 -57
-202 -124 -51 -39 -52 -41 -35 -60 17 -20 17 -20 -9 -4 -26 16 -28 16 -68 -13
-44 -33 -47 -38 -31 -57 6 -7 3 -6 -5 1 -13 11 -26 8 -80 -18 -35 -16 -65 -33
-65 -36 0 -4 14 -12 31 -19 17 -7 57 -30 90 -51 54 -35 206 -105 269 -124 14
-4 34 -14 45 -21 21 -15 39 -19 32 -6 -3 4 59 8 136 8 96 1 142 5 145 13 5 16
32 41 43 41 5 0 13 -8 16 -17 11 -29 25 -33 83 -28 41 5 51 3 38 -5 -16 -10
-212 -23 -369 -24 l-77 -1 77 -43 c70 -41 167 -104 345 -225 141 -97 303 -165
439 -187 87 -14 255 -2 357 25 70 19 97 18 45 -1 -129 -47 -379 -55 -500 -16
-154 50 -280 117 -455 241 -135 96 -274 176 -377 215 -108 42 -229 100 -348
166 -49 27 -96 50 -103 50 -7 0 -25 -9 -40 -20 -16 -12 -35 -18 -44 -15 -22 9
-40 62 -28 84 8 15 -1 20 -64 35 -102 26 -140 24 -229 -8 -59 -21 -75 -31 -67
-41 7 -8 5 -16 -8 -27 -27 -24 -45 -27 -64 -10 -16 14 -24 11 -85 -30 -76 -50
-186 -147 -253 -223 -25 -27 -52 -56 -61 -65 -9 -8 -54 -57 -98 -108 -139
-156 -251 -261 -251 -234 0 5 11 17 24 25 42 28 187 178 315 325 69 79 152
167 185 197 60 52 239 176 260 179 32 5 193 61 206 72 19 15 116 64 127 64 13
0 -80 -56 -107 -65 -20 -6 1 -14 105 -39 79 -19 143 -40 162 -54 l32 -23 53
27 c61 31 118 67 172 108 36 27 37 30 20 43 -21 16 -11 17 17 3 16 -9 33 -1
103 49 47 33 103 69 125 80 22 12 42 25 46 31 3 5 15 10 26 10 17 0 18 -3 9
-20z m4438 -24 c5 -26 -18 -47 -47 -44 -15 1 -64 -16 -116 -41 -50 -24 -126
-60 -170 -79 -85 -37 -330 -122 -353 -122 -8 0 -27 -9 -43 -21 -37 -26 -75
-19 -91 16 -12 28 1 52 37 65 21 8 65 -7 65 -22 0 -16 50 -7 177 32 164 51
391 153 482 217 38 26 54 26 59 -1z m-929 -235 c11 -11 22 -17 24 -15 3 3 8 0
13 -7 4 -8 3 -10 -4 -5 -8 5 -12 -2 -12 -19 0 -20 -14 -40 -47 -71 -26 -23
-50 -41 -52 -38 -3 3 1 9 8 13 14 9 13 10 -38 49 -18 14 -23 25 -18 43 16 62
86 90 126 50z m-3187 -137 c66 -19 139 -44 161 -55 32 -17 45 -19 64 -10 38
17 61 13 79 -14 11 -18 26 -25 48 -25 l31 -1 -29 -12 c-29 -13 -29 -13 65 -46
52 -18 107 -36 124 -40 44 -10 18 -21 -62 -25 -59 -4 -63 -3 -29 5 22 5 42 11
44 13 2 2 -36 17 -85 33 -48 15 -89 31 -91 35 -2 4 -18 0 -35 -8 -31 -16 -32
-16 -57 13 -23 28 -27 29 -56 17 -17 -7 -36 -9 -43 -4 -10 5 -4 10 18 15 43 9
39 21 -16 45 -141 63 -343 99 -375 67 -8 -8 -23 -11 -38 -7 -18 4 -21 8 -12
14 58 36 149 33 294 -10z m2720 -97 c-12 -13 -22 -35 -22 -50 0 -32 -35 -71
-57 -63 -50 20 -57 16 -183 -85 -153 -123 -287 -224 -442 -332 -132 -91 -142
-109 -85 -148 43 -31 61 -49 54 -56 -3 -3 -27 12 -52 33 -43 34 -48 36 -57 20
-16 -28 -49 -35 -87 -20 -34 14 -34 14 -165 -69 -72 -46 -183 -115 -246 -155
-75 -46 -121 -81 -132 -101 -20 -37 -65 -42 -92 -12 -41 46 14 106 72 79 26
-13 34 -10 167 71 200 120 355 222 355 233 0 5 -14 17 -31 26 -70 39 -395 232
-405 240 -6 6 -17 4 -29 -4 -40 -29 -105 -5 -105 38 0 21 -44 43 -155 77 -39
11 -133 41 -210 65 -138 43 -140 43 -156 24 -21 -27 -59 -20 -79 14 -31 57 44
96 85 44 17 -21 56 -37 200 -81 99 -29 213 -65 254 -79 50 -18 78 -23 85 -16
18 18 57 10 84 -18 15 -15 39 -33 53 -39 15 -6 76 -44 135 -83 60 -39 146 -90
191 -113 l82 -42 24 23 c29 28 71 28 98 1 12 -12 24 -17 28 -12 3 5 74 54 158
111 84 56 198 138 255 184 269 214 276 220 282 248 6 33 51 54 80 38 14 -8 21
-5 32 11 9 12 20 21 26 21 6 0 2 -10 -10 -23z"/>
<path d="M5563 3465 c-6 -7 -9 -16 -6 -19 4 -3 -3 -6 -15 -6 -11 0 -24 5 -27
10 -3 6 -13 10 -21 10 -8 0 -14 -4 -14 -10 0 -5 5 -9 11 -7 6 1 14 -4 16 -11
6 -17 -28 -4 -46 17 -12 14 -12 14 -7 -5 4 -14 2 -21 -9 -21 -8 0 -15 4 -15 9
0 17 -18 7 -23 -13 -3 -12 -10 -18 -16 -14 -6 3 -11 1 -11 -5 0 -6 -4 -8 -10
-5 -13 8 -13 -5 0 -25 8 -13 10 -12 10 4 0 19 1 19 20 -2 12 -12 27 -22 35
-22 8 0 15 -4 15 -9 0 -5 12 -8 26 -6 18 2 24 -1 20 -12 -3 -8 -2 -12 3 -8 5
3 12 -1 14 -7 4 -10 8 -9 17 2 10 13 11 13 6 -2 -4 -13 3 -22 24 -33 16 -9 33
-15 36 -14 4 0 11 -5 15 -13 6 -9 9 -9 9 -1 0 9 10 9 40 -2 24 -8 38 -10 34
-4 -4 7 4 10 22 8 16 -2 35 0 42 4 6 5 12 5 12 1 0 -4 9 1 20 11 11 10 20 15
20 11 0 -4 12 2 26 13 15 11 30 18 35 16 7 -5 89 94 89 108 0 4 -9 -1 -20 -10
-11 -10 -20 -22 -20 -28 0 -5 -11 -23 -24 -38 -17 -20 -26 -24 -32 -16 -4 7 1
18 11 25 10 7 23 22 29 32 6 11 17 29 24 41 8 14 9 21 2 21 -6 0 -8 5 -5 10 3
6 1 10 -5 10 -7 0 -9 -8 -5 -21 5 -14 2 -25 -6 -30 -21 -13 -29 -11 -23 6 5
11 2 13 -10 9 -9 -3 -16 -13 -16 -21 0 -12 -2 -12 -16 1 -19 19 -26 20 -42 4
-15 -15 -72 -20 -72 -6 0 6 -8 7 -17 4 -9 -4 -20 -1 -24 6 -5 7 -13 14 -19 14
-5 1 -14 2 -20 3 -5 0 -18 11 -30 23 -11 12 -20 17 -20 12 0 -6 5 -15 11 -21
8 -8 5 -15 -12 -24 -21 -10 -22 -10 -12 2 17 20 -6 63 -24 44z"/>
</g>
</svg>
